<?xml version="1.0" standalone="no"?><!DOCTYPE svg PUBLIC "-//W3C//DTD SVG 1.1//EN" "http://www.w3.org/Graphics/SVG/1.1/DTD/svg11.dtd"><svg t="1611052322416" class="icon" viewBox="0 0 1024 1024" version="1.1" xmlns="http://www.w3.org/2000/svg" p-id="2772" width="128" height="128" xmlns:xlink="http://www.w3.org/1999/xlink"><defs><style type="text/css">@font-face { font-family: "Material Icons"; font-style: normal; font-weight: 400; src: url("chrome-extension://egopeokecbgdiiofbemdgbofafjepang/public/fonts/flUhRq6tzZclQEJ-Vdg-IuiaDsNcIhQ8tQ.woff2") format("woff2"); }
</style></defs><path d="M786.4 462.4h-49.6c-41.6 0-75.2 33.6-75.2 75.2v100c0 13.6-11.2 24.8-24.8 24.8H387.2c-13.6 0-24.8-11.2-24.8-24.8v-200c0-13.6 11.2-24.8 24.8-24.8h49.6c32 0 59.2-20 69.6-48h80c33.6 0 62.4-21.6 72.8-52H712v-49.6h-52a76.96 76.96 0 0 0-72.8-52h-80c-11.2-28-38.4-48-69.6-48h-200c-41.6 0-75.2 33.6-75.2 75.2v548.8c0 41.6 33.6 75.2 75.2 75.2h548.8c41.6 0 75.2-33.6 75.2-75.2V536.8c0-40.8-33.6-74.4-75.2-74.4z m-272-197.6h72.8c12.8 0 22.4 10.4 22.4 22.4s-10.4 22.4-22.4 22.4h-72.8v-44.8z" p-id="2773"></path></svg>