<?xml version="1.0" standalone="no"?><!DOCTYPE svg PUBLIC "-//W3C//DTD SVG 1.1//EN" "http://www.w3.org/Graphics/SVG/1.1/DTD/svg11.dtd"><svg t="1681893316716" class="icon" viewBox="0 0 1024 1024" version="1.1" xmlns="http://www.w3.org/2000/svg" p-id="9790" xmlns:xlink="http://www.w3.org/1999/xlink" width="200" height="200"><path d="M894.19 165.19v-0.1c-0.85-0.25-86.33-25.36-174.45-50.13C537.59 63.73 522.24 63.73 514 63.73h-2c-8.25 0-23.6 0-205.77 51.23-88.12 24.78-173.6 49.88-174.45 50.13v0.1a44.07 44.07 0 0 0-33 42.6v277.93c0 55.41 11.8 112.58 35.09 169.94a564.12 564.12 0 0 0 91.7 150.94c82.74 97.46 187.36 153.4 287.12 153.67h0.61c99.77-0.23 204.38-56.21 287.12-153.67a564.09 564.09 0 0 0 91.69-150.94c23.29-57.36 35.09-114.53 35.09-169.94V207.79a44.07 44.07 0 0 0-33.01-42.6z m-31 320.53c0 92.7-41.71 197.17-111.57 279.46C681 848.39 594 896.15 513 896.27c-81-0.12-168-47.88-238.64-131.09C204.5 682.89 162.8 578.42 162.8 485.72V223.25C317 177.81 485.11 131.14 513 127.87c27.89 3.27 196 49.94 350.2 95.38z" fill="#fff" p-id="9791"></path><path d="M513 256.05a32 32 0 0 0-32 32.07l0.85 370.88-74.16-73.65a32 32 0 1 0-45.1 45.41l128.82 127.93 0.3 0.28c0.27 0.26 0.55 0.53 0.83 0.78l0.56 0.48 0.62 0.53 0.71 0.55 0.51 0.4 0.8 0.57 0.46 0.32 0.86 0.55 0.46 0.28 0.87 0.5 0.5 0.28 0.84 0.43 0.57 0.28 0.79 0.35 0.67 0.29 0.23 0.1 0.48 0.18 0.77 0.29 0.63 0.21 0.87 0.28 0.16 0.05 0.41 0.11 0.94 0.25 0.54 0.12 1 0.21 0.55 0.1 1 0.17h0.1l0.52 0.06 0.92 0.11 0.81 0.06 0.74 0.05h3.21l0.79-0.06 0.77-0.06 0.94-0.11 0.6-0.08 1-0.17 0.52-0.09 1-0.23 0.5-0.12 1-0.27 0.53-0.15 0.92-0.3 0.59-0.2 0.82-0.31 0.67-0.27 0.7-0.31 0.76-0.34 0.59-0.3 0.82-0.42 0.5-0.28 0.87-0.5 0.44-0.28 0.88-0.57 0.42-0.3 0.85-0.61 0.45-0.35 0.77-0.61 0.58-0.5 0.6-0.53q0.58-0.53 1.14-1.09l127.12-128a32 32 0 0 0-45.41-45.1l-72.59 73.09L545 288a32 32 0 0 0-32-31.93z" fill="#fff" p-id="9792"></path></svg>
