<?xml version="1.0" standalone="no"?><!DOCTYPE svg PUBLIC "-//W3C//DTD SVG 1.1//EN" "http://www.w3.org/Graphics/SVG/1.1/DTD/svg11.dtd"><svg t="1681893293340" class="icon" viewBox="0 0 1024 1024" version="1.1" xmlns="http://www.w3.org/2000/svg" p-id="8542" xmlns:xlink="http://www.w3.org/1999/xlink" width="200" height="200"><path d="M946.96448 771.26656H77.02528c-10.35264 0-18.7392-8.38656-18.7392-18.7392V271.47264c0-10.35264 8.38656-18.7392 18.7392-18.7392h869.94944c10.35264 0 18.7392 8.38656 18.7392 18.7392v481.05472c-0.01024 10.35264-8.3968 18.7392-18.74944 18.7392z" p-id="8543"></path><path d="M97.1776 291.62496h829.63456v440.75008H97.1776z" fill="#FFFFFF" p-id="8544"></path><path d="M531.2512 679.12704V345.22112c0-8.04864-6.54336-14.58176-14.58176-14.58176-8.04864 0-14.58176 6.54336-14.58176 14.58176v333.90592c0 8.04864 6.54336 14.58176 14.58176 14.58176 8.0384 0 14.58176-6.53312 14.58176-14.58176z m-212.224 0V345.22112c0-8.04864-6.54336-14.58176-14.58176-14.58176s-14.58176 6.54336-14.58176 14.58176v333.90592c0 8.04864 6.54336 14.58176 14.58176 14.58176 8.04864 0 14.58176-6.53312 14.58176-14.58176zM204.88192 679.12704V345.22112c0-8.04864-6.54336-14.58176-14.58176-14.58176s-14.58176 6.54336-14.58176 14.58176v333.90592c0 8.04864 6.54336 14.58176 14.58176 14.58176 8.0384 0 14.58176-6.53312 14.58176-14.58176z m432.46592 0V345.22112c0-8.04864-6.54336-14.58176-14.58176-14.58176-8.04864 0-14.58176 6.54336-14.58176 14.58176v333.90592c0 8.04864 6.54336 14.58176 14.58176 14.58176 8.04864 0 14.58176-6.53312 14.58176-14.58176z m106.10688 0V345.22112c0-8.04864-6.54336-14.58176-14.58176-14.58176s-14.58176 6.54336-14.58176 14.58176v333.90592c0 8.04864 6.54336 14.58176 14.58176 14.58176 8.0384 0 14.58176-6.53312 14.58176-14.58176z m106.09664 0V345.22112c0-8.04864-6.54336-14.58176-14.58176-14.58176-8.04864 0-14.58176 6.54336-14.58176 14.58176v333.90592c0 8.04864 6.54336 14.58176 14.58176 14.58176 8.04864 0 14.58176-6.53312 14.58176-14.58176z m-424.41728 0V345.22112c0-8.04864-6.54336-14.58176-14.58176-14.58176-8.04864 0-14.58176 6.54336-14.58176 14.58176v333.90592c0 8.04864 6.54336 14.58176 14.58176 14.58176 8.04864 0 14.58176-6.53312 14.58176-14.58176z" p-id="8545"></path></svg>