<?xml version="1.0" standalone="no"?><!DOCTYPE svg PUBLIC "-//W3C//DTD SVG 1.1//EN" "http://www.w3.org/Graphics/SVG/1.1/DTD/svg11.dtd"><svg t="1681893160613" class="icon" viewBox="0 0 1024 1024" version="1.1" xmlns="http://www.w3.org/2000/svg" p-id="4203" xmlns:xlink="http://www.w3.org/1999/xlink" width="200" height="200"><path d="M206.336 516.096l-87.552 87.552c-10.24 10.24-10.24 26.112 0 36.352 5.12 5.12 11.776 7.68 17.92 7.68s13.312-2.56 17.92-7.68l105.472-105.472c10.24-10.24 10.24-26.112 0-36.352l-1.024-1.024c-0.512-0.512-0.512-1.024-1.024-1.024L153.088 390.656c-10.24-10.24-26.112-10.24-36.352 0s-10.24 26.112 0 36.352l89.6 89.088zM334.336 639.488c5.12 5.12 11.776 7.68 17.92 7.68s13.312-2.56 17.92-7.68L476.16 534.016c10.24-10.24 10.24-26.112 0-36.352l-1.024-1.024c-0.512-0.512-0.512-1.024-1.024-1.024L368.64 390.656c-10.24-10.24-26.112-10.24-36.352 0s-10.24 26.112 0 36.352l89.6 89.6L334.336 604.16c-9.728 9.216-9.728 25.6 0 35.328zM549.888 639.488c5.12 5.12 11.776 7.68 17.92 7.68s13.312-2.56 17.92-7.68l105.472-105.472c10.24-10.24 10.24-26.112 0-36.352-0.512-0.512-1.024-0.512-1.024-1.024-0.512-0.512-0.512-1.024-1.024-1.024L583.68 390.144c-10.24-10.24-26.112-10.24-36.352 0s-10.24 26.112 0 36.352l89.6 89.6-87.552 87.552c-9.216 9.728-9.216 26.112 0.512 35.84zM907.264 498.176l-1.024-1.024c-0.512-0.512-0.512-1.024-1.024-1.024l-105.472-105.472c-10.24-10.24-26.112-10.24-36.352 0s-10.24 26.112 0 36.352l89.6 89.6-87.552 87.552c-10.24 10.24-10.24 26.112 0 36.352 5.12 5.12 11.776 7.68 17.92 7.68s13.312-2.56 17.92-7.68l105.472-105.472c10.24-10.752 10.24-27.136 0.512-36.864zM876.032 756.736c-14.336 0-25.6 11.264-25.6 25.6v61.44c0 9.728-8.192 17.92-17.92 17.92H178.688c-9.728 0-17.92-8.192-17.92-17.92v-61.44c0-14.336-11.264-25.6-25.6-25.6s-25.6 11.264-25.6 25.6v61.44c0 37.888 31.232 69.12 69.12 69.12h654.336c37.888 0 69.12-31.232 69.12-69.12v-61.44c-0.512-14.336-11.776-25.6-26.112-25.6zM135.168 267.264c14.336 0 25.6-11.264 25.6-25.6v-61.44c0-9.728 8.192-17.92 17.92-17.92h654.336c9.728 0 17.92 8.192 17.92 17.92v61.44c0 14.336 11.264 25.6 25.6 25.6s25.6-11.264 25.6-25.6v-61.44c0-37.888-31.232-69.12-69.12-69.12H178.688c-37.888 0-69.12 31.232-69.12 69.12v61.44c0 14.336 11.264 25.6 25.6 25.6z" fill="#2c2c2c" p-id="4204"></path></svg>