<?xml version="1.0" standalone="no"?><!DOCTYPE svg PUBLIC "-//W3C//DTD SVG 1.1//EN" "http://www.w3.org/Graphics/SVG/1.1/DTD/svg11.dtd"><svg t="1681893167126" class="icon" viewBox="0 0 1024 1024" version="1.1" xmlns="http://www.w3.org/2000/svg" p-id="4406" xmlns:xlink="http://www.w3.org/1999/xlink" width="200" height="200"><path d="M509.9 954.2c-110.3 0-215.6-47.3-289.1-129.6L265 785.1c62.2 69.8 151.6 109.6 244.9 109.6 100.8 0 194.7-45.4 257.4-124.5l46.4 36.9c-74 93.4-184.8 147.1-303.8 147.1zM897.3 566.7h-59.2c0-139.1-88-263.4-219.1-309.7l19.7-55.9c154.7 54.6 258.6 201.4 258.6 365.6zM181.6 566.7h-59.2c0-167.5 106.9-315.4 265.7-367.9l18.5 56.3c-134.4 44.4-225 169.8-225 311.6z" fill="#231815" p-id="4407"></path><path d="M191.2 830.9c-78.3 0-142-63.7-142-142s63.7-142 142-142 142 63.7 142 142c0.2 78.2-63.6 142-142 142z m0-224.8c-45.7 0-82.8 37.1-82.8 82.8s37.1 82.8 82.8 82.8 82.8-37.1 82.8-82.8-37.1-82.8-82.8-82.8zM509.9 350.9c-78.3 0-142-63.7-142-142s63.7-142 142-142 142 63.7 142 142-63.7 142-142 142z m0-224.8c-45.7 0-82.8 37.1-82.8 82.8s37.1 82.8 82.8 82.8c45.7 0 82.8-37.1 82.8-82.8S555.6 126.1 509.9 126.1zM833.9 830.9c-78.3 0-142-63.7-142-142s63.7-142 142-142 142 63.7 142 142-63.7 142-142 142z m0-224.8c-45.7 0-82.8 37.1-82.8 82.8s37.1 82.8 82.8 82.8c45.7 0 82.8-37.1 82.8-82.8s-37-82.8-82.8-82.8z" fill="#231815" p-id="4408"></path></svg>