<?xml version="1.0" standalone="no"?><!DOCTYPE svg PUBLIC "-//W3C//DTD SVG 1.1//EN" "http://www.w3.org/Graphics/SVG/1.1/DTD/svg11.dtd"><svg t="1681893151063" class="icon" viewBox="0 0 1024 1024" version="1.1" xmlns="http://www.w3.org/2000/svg" p-id="4000" xmlns:xlink="http://www.w3.org/1999/xlink" width="200" height="200"><path d="M860.520296 796.406519c42.533926 29.582222 39.405037 73.709037 0 94.85274H227.365926A94.663111 94.663111 0 0 1 132.740741 796.690963V163.726222c26.130963-42.17363 69.726815-40.448 94.871703 0v569.666371a62.900148 62.900148 0 0 0 63.032889 62.994963h569.874963v0.018963zM290.891852 464.421926v221.316741a47.445333 47.445333 0 0 0 94.871704 0V464.421926a47.445333 47.445333 0 0 0-94.871704 0z m147.607704-158.094222v379.410963a47.445333 47.445333 0 0 0 94.909629 0V306.327704a47.445333 47.445333 0 0 0-94.909629 0z m147.58874 252.928v126.482963a47.445333 47.445333 0 0 0 94.90963 0v-126.482963a47.445333 47.445333 0 0 0-94.871704 0h-0.037926z m147.626667-158.07526v284.558223a47.445333 47.445333 0 0 0 94.90963 0V401.180444a47.445333 47.445333 0 0 0-94.90963 0z" fill="#2c2c2c" p-id="4001"></path></svg>