<?xml version="1.0" standalone="no"?><!DOCTYPE svg PUBLIC "-//W3C//DTD SVG 1.1//EN" "http://www.w3.org/Graphics/SVG/1.1/DTD/svg11.dtd"><svg t="1681893274830" class="icon" viewBox="0 0 1024 1024" version="1.1" xmlns="http://www.w3.org/2000/svg" p-id="7013" xmlns:xlink="http://www.w3.org/1999/xlink" width="200" height="200"><path d="M892 738.688a32.96 32.96 0 0 0-32.96 32.928v64H164.992v-64a32.96 32.96 0 0 0-65.92 0v96.928a32.96 32.96 0 0 0 32.96 32.96h760a32.96 32.96 0 0 0 32.96-32.96v-96.928a32.96 32.96 0 0 0-32.96-32.96zM641.696 456a35.456 35.456 0 0 0-35.456-35.456h-187.072a35.488 35.488 0 1 0 0 70.944h187.072a35.456 35.456 0 0 0 35.456-35.488z" fill="#2c2c2c" p-id="7014"></path><path d="M715.36 136.96a30.4 30.4 0 0 0-24.096-11.904H314.944a30.4 30.4 0 0 0-25.408 13.76l-103.04 157.76a30.4 30.4 0 0 0-4.576 21.376 29.216 29.216 0 0 0-0.416 4.768v336.096a77.92 77.92 0 0 0 77.92 77.888h505.152a77.888 77.888 0 0 0 77.92-77.856V313.184a30.4 30.4 0 0 0-6.688-19.008L715.36 136.96z m66.336 206.624v315.232c0 9.44-7.648 17.088-17.12 17.088H259.424a17.088 17.088 0 0 1-17.12-17.088v-315.296h539.392v0.064zM676.16 185.856l74.336 96.928h-207.232V185.856h132.896z m-344.8 0h151.008v96.928H268.032l63.36-96.928z" fill="#2c2c2c" p-id="7015"></path></svg>