<?xml version="1.0" standalone="no"?><!DOCTYPE svg PUBLIC "-//W3C//DTD SVG 1.1//EN" "http://www.w3.org/Graphics/SVG/1.1/DTD/svg11.dtd"><svg t="1681894252172" class="icon" viewBox="0 0 1024 1024" version="1.1" xmlns="http://www.w3.org/2000/svg" p-id="1533" xmlns:xlink="http://www.w3.org/1999/xlink" width="200" height="200"><path d="M949.55393581 74.44606419v875.10787162H74.44606419V74.44606419h875.10787162m28.47984197-59.54876049H45.96622222c-17.21735902 0-31.06891852 13.8515595-31.06891852 31.06891852v932.06755556c0 17.21735902 13.8515595 31.06891852 31.06891852 31.06891852h932.06755556c17.21735902 0 31.06891852-13.8515595 31.06891852-31.06891852V45.96622222c0-17.21735902-13.8515595-31.06891852-31.06891852-31.06891852z" fill="#ffffff" p-id="1534"></path><path d="M249.31099938 334.42300713v-165.70089877h165.70089877v165.70089877zM632.38558657 647.31290738v-165.70089876h165.70089876v165.70089876zM263.44865185 949.81284347v-165.70089878h165.70089876v165.70089878zM606.66440565 949.84650145v-165.70089876h165.70089877v165.70089876zM55.15744395 334.51880297H968.97200987v51.78153086H55.15744395z" fill="#ffffff" p-id="1535"></path><path d="M55.15744395 646.50252642H968.97200987v51.78153086H55.15744395z" fill="#ffffff" p-id="1536"></path></svg>