<?xml version="1.0" standalone="no"?><!DOCTYPE svg PUBLIC "-//W3C//DTD SVG 1.1//EN" "http://www.w3.org/Graphics/SVG/1.1/DTD/svg11.dtd"><svg t="1681893298481" class="icon" viewBox="0 0 1024 1024" version="1.1" xmlns="http://www.w3.org/2000/svg" p-id="8705" xmlns:xlink="http://www.w3.org/1999/xlink" width="200" height="200"><path d="M808.96 12.047059H217.449412a48.188235 48.188235 0 0 0-41.923765 24.455529L18.311529 314.548706a48.188235 48.188235 0 0 0-6.26447 23.67247V963.764706a48.188235 48.188235 0 0 0 48.188235 48.188235h903.529412a48.188235 48.188235 0 0 0 48.188235-48.188235V338.221176a48.188235 48.188235 0 0 0-6.083765-23.431529L851.064471 36.803765A48.188235 48.188235 0 0 0 808.96 12.047059z m-28.310588 96.37647l134.927059 242.326589V915.576471H108.423529V350.870588L245.519059 108.423529h535.130353z" fill="#2c2c2c" p-id="8706"></path><path d="M963.764706 313.223529a48.188235 48.188235 0 0 1 6.023529 96.015059L963.764706 409.6H60.235294a48.188235 48.188235 0 0 1-6.023529-96.015059L60.235294 313.223529h903.529412z" fill="#2c2c2c" p-id="8707"></path></svg>