<?xml version="1.0" standalone="no"?><!DOCTYPE svg PUBLIC "-//W3C//DTD SVG 1.1//EN" "http://www.w3.org/Graphics/SVG/1.1/DTD/svg11.dtd"><svg t="1681893387666" class="icon" viewBox="0 0 1024 1024" version="1.1" xmlns="http://www.w3.org/2000/svg" p-id="11814" xmlns:xlink="http://www.w3.org/1999/xlink" width="200" height="200"><path d="M1016.617769 755.249334a40.880951 40.880951 0 0 0 3.998528-8.380915 52.492676 52.492676 0 0 0 2.271164-8.860738c0.255906-1.663388 0.415847-3.326775 0.511812-4.990163 0.063976-0.863682 0.255906-1.631399 0.255906-2.463093V293.24341c0-4.062504-0.671753-7.965068-1.599411-11.739679-0.255906-1.023623-0.607776-2.015258-0.927659-3.006893a46.606843 46.606843 0 0 0-3.582681-8.28495c-0.447835-0.831694-0.831694-1.663388-1.343506-2.463093a49.165901 49.165901 0 0 0-7.133374-8.892726c-0.511812-0.479823-1.0876-0.863682-1.599411-1.343506a46.574855 46.574855 0 0 0-7.933079-5.693904c-0.511812-0.287894-0.89567-0.735729-1.407482-1.023623L534.299323 5.605297a48.142278 48.142278 0 0 0-44.847491 0L25.622579 250.795036c-0.5438 0.319882-0.927659 0.735729-1.43947 1.055611-2.87894 1.663388-5.533963 3.550693-7.997056 5.725893-0.479823 0.447835-1.055611 0.799706-1.535434 1.279529a47.982337 47.982337 0 0 0-7.165363 8.892726c-0.479823 0.799706-0.863682 1.631399-1.311517 2.463093a48.078301 48.078301 0 0 0-3.614669 8.316939l-0.927659 3.006893c-0.927659 3.77461-1.599411 7.645186-1.599411 11.70769v437.279026c0 0.799706 0.191929 1.535435 0.223918 2.335141a55.019746 55.019746 0 0 0 1.407481 9.532491 54.859805 54.859805 0 0 0 3.166835 8.732785 55.819451 55.819451 0 0 0 4.734257 7.837115 46.638831 46.638831 0 0 0 13.978854 12.571372c0.703741 0.415847 1.279529 0.959647 2.015258 1.343505l463.829253 245.18974c0.479823 0.255906 1.023623 0.35187 1.535435 0.575788 2.33514 1.151576 4.798234 2.047246 7.325303 2.782976 0.959647 0.287894 1.919293 0.671753 2.87894 0.89567a42.832232 42.832232 0 0 0 21.400122 0.127953c0.991635-0.223918 1.919293-0.607776 2.87894-0.895671 2.52707-0.735729 4.990163-1.631399 7.325304-2.782975 0.511812-0.255906 1.055611-0.319882 1.535435-0.575788l463.829252-245.18974c0.735729-0.383859 1.343505-0.927659 2.047247-1.375493a51.916888 51.916888 0 0 0 7.74115-5.693904 50.285489 50.285489 0 0 0 6.237704-6.877468c0.89567-1.279529 1.727364-2.52707 2.495081-3.806599zM95.996673 372.894088l367.86458 194.456416v328.77497L95.996673 701.63707V372.894088z m463.829253 194.456416L927.690506 372.894088v328.742982l-367.86458 194.488404V567.350504zM511.843589 102.369675l361.147053 190.905723L511.843589 484.149133 150.696537 293.24341 511.843589 102.369675z" p-id="11815"></path></svg>